<?xml version="1.0" encoding="UTF-8" standalone="no"?>
<!DOCTYPE svg PUBLIC "-//W3C//DTD SVG 1.1//EN" "http://www.w3.org/Graphics/SVG/1.1/DTD/svg11.dtd">
<!--Generated by Intaglio, www.PurgatoryDesign.com-->
<svg version="1.1" viewBox="39,71,411,381" width="411" height="381" xmlns="http://www.w3.org/2000/svg" xmlns:xlink="http://www.w3.org/1999/xlink"><g><path fill="#fffffe" stroke="#000100" d="M329.087,204.653 L419.087,204.653 L419.087,126.555 L329.087,204.653 Z"/><path fill="#fffffe" stroke="#000100" stroke-width="1.00002" d="M72,72 L252,72 L252,432.016 L72,432.016 L72,72 Z"/><path fill="none" stroke="#000100" stroke-dasharray="5,5,5" d="M72,252.016 L252,252.016"/><path fill="none" stroke="#000100" d="M72.0012,408.211 L252,252.016"/><path fill="none" stroke="#000100" d="M251.999,275.821 L240.202,262.226"/><path fill="none" stroke="#000100" d="M72,432.016 L251.999,275.821"/><g><path fill="none" stroke="#fb0207" d="M264.08,250.634 L304.372,218.342"/><path fill="#fb0207" d="M297.538,217.411 L308.468,215.059 L303.792,225.214 L304.177,218.498"/></g><path fill="none" stroke="#fb0207" d="M449.051,168.809 C449.051,211.839,414.168,246.722,371.138,246.722 C328.107,246.722,293.224,211.839,293.224,168.809 C293.224,125.779,328.107,90.8958,371.138,90.8958 C414.168,90.8958,449.051,125.779,449.051,168.809 Z"/><g><g><path fill="none" stroke="#000100" d="M329.087,213.624 L419.087,213.624"/><path fill="none" stroke="#000100" d="M329.087,208.624 L329.087,218.624"/><path fill="none" stroke="#000100" d="M419.087,218.624 L419.087,208.624"/></g><path fill="#fffffe" d="M369.149,207.67 L379.025,207.67 L379.025,219.579 L369.149,219.579 L369.149,207.67 Z"/><text fill="#000100" font-family="Times New Roman" font-style="italic" font-size="12" transform="matrix(1,0,0,1,370.727,217.72)" xml:space="preserve"><tspan>d</tspan></text></g><g><g><path fill="none" stroke="#000100" stroke-width="1" d="M323.188,197.855 L413.188,119.757"/><path fill="none" stroke="#000100" stroke-width="1" d="M319.911,194.079 L326.465,201.632"/><path fill="none" stroke="#000100" stroke-width="1" d="M416.465,123.534 L409.911,115.981"/></g><g><path fill="#fffffe" d="M360.943,149.456 L374.086,149.456 L374.086,164.089 L360.943,164.089 L360.943,149.456 Z"/><text fill="#000100" font-family="Times New Roman" font-style="italic" font-size="12" transform="matrix(1,0,0,1,362.188,161.048)" xml:space="preserve"><tspan>h</tspan><tspan baseline-shift="sub">2</tspan></text></g></g><g><g><path fill="none" stroke="#000100" d="M261.795,276.191 L261.795,252.016"/><path fill="none" stroke="#000100" d="M256.795,276.191 L266.795,276.191"/><path fill="none" stroke="#000100" d="M266.795,252.016 L256.795,252.016"/></g><g><path fill="#fffffe" d="M254.983,256.788 L268.126,256.788 L268.126,271.42 L254.983,271.42 L254.983,256.788 Z"/><text fill="#000100" font-family="Times New Roman" font-style="italic" font-size="12" transform="matrix(1,0,0,1,255.795,266.345)" xml:space="preserve"><tspan>h</tspan><tspan baseline-shift="sub">2</tspan></text></g></g><g><path fill="#fffffe" stroke="#000100" d="M244.989,267.879 C246.925,266.171,249.418,265.228,252,265.228"/><path fill="none" stroke="#000100" d="M244.989,267.879 L238.192,273.778"/><g><path fill="#fffffe" d="M231.164,271.68 L238.537,271.68 L238.537,279.888 L231.164,279.888 L231.164,271.68 Z"/><text fill="#000100" font-family="Times New Roman" font-style="italic" font-size="12" transform="matrix(1,0,0,1,233.275,278.436)" xml:space="preserve"><tspan>t</tspan></text></g></g><g><g><path fill="none" stroke="#000100" stroke-width="1.00002" d="M72,442.872 L252,442.872"/><path fill="none" stroke="#000100" stroke-width="1.00002" d="M72,437.872 L72,447.872"/><path fill="none" stroke="#000100" stroke-width="1.00002" d="M252,447.872 L252,437.872"/></g><g><path fill="#fffffe" d="M151.116,437.026 L164.259,437.026 L164.259,451.658 L151.116,451.658 L151.116,437.026 Z"/><text fill="#000100" font-family="Times New Roman" font-style="italic" font-size="12" transform="matrix(1,0,0,1.00004,153.615,445.452)" xml:space="preserve"><tspan>w</tspan></text></g></g><g><path fill="#fffffe" stroke="#000100" d="M107.931,432.016 C107.931,423.275,104.745,414.834,98.9695,408.274"/><g><path fill="#fffffe" d="M101.958,416.082 L111.589,416.082 L111.589,427.461 L101.958,427.461 L101.958,416.082 Z"/><text fill="#000100" font-family="Times New Roman" font-style="italic" font-size="12" transform="matrix(1,0,0,1,103.345,425.09)" xml:space="preserve"><tspan>t</tspan></text></g></g><g><path fill="none" stroke="#000100" d="M167.899,348.814 L156.102,335.218"/><g><path fill="#fffffe" d="M158.64,337.181 L165.132,337.181 L165.132,347.004 L158.64,347.004 L158.64,337.181 Z"/><text fill="#000100" font-family="Times New Roman" font-style="italic" font-size="12" transform="matrix(1,0,0,1,158.64,346.112)" xml:space="preserve"><tspan>d</tspan></text></g></g><g><g><path fill="none" stroke="#000100" d="M64.333,432.016 L64.333,252.016"/><path fill="none" stroke="#000100" d="M59.333,432.016 L69.333,432.016"/><path fill="none" stroke="#000100" d="M69.333,252.016 L59.333,252.016"/></g><g><path fill="#fffffe" d="M57.7616,333.459 L70.9045,333.459 L70.9045,348.091 L57.7616,348.091 L57.7616,333.459 Z"/><text fill="#000100" font-family="Times New Roman" font-style="italic" font-size="12" transform="matrix(1,0,0,1,55.6575,344.257)" xml:space="preserve"><tspan>h/n</tspan></text></g></g><g><g><path fill="none" stroke="#000100" d="M45.7551,432.016 L45.7551,72"/><path fill="none" stroke="#000100" d="M40.7551,432.016 L50.7551,432.016"/><path fill="none" stroke="#000100" d="M50.7551,72 L40.7551,72"/></g><g><path fill="#fffffe" d="M39.0576,242.837 L52.2006,242.837 L52.2006,257.47 L39.0576,257.47 L39.0576,242.837 Z"/><text fill="#000100" font-family="Times New Roman" font-style="italic" font-size="12" transform="matrix(1,0,0,1,42.7551,254.249)" xml:space="preserve"><tspan>h</tspan></text></g></g><g><path fill="#fffffe" stroke="#000100" stroke-width="1" d="M364.773,204.653 C364.773,195.912,361.587,187.471,355.811,180.911"/><g><path fill="#fffffe" d="M355.811,188.448 L368.954,188.448 L368.954,199.673 L355.811,199.673 L355.811,188.448 Z"/><text fill="#000100" font-family="Times New Roman" font-style="italic" font-size="12" transform="matrix(1,0,0,1,360.186,197.727)" xml:space="preserve"><tspan>t</tspan></text></g></g><g><g><path fill="none" stroke="#000100" d="M66.1014,401.413 L246.1,245.218"/><path fill="none" stroke="#000100" d="M62.8244,397.637 L69.3784,405.19"/><path fill="none" stroke="#000100" d="M249.377,248.995 L242.823,241.442"/></g><g><path fill="#fffffe" d="M147.776,313.126 L160.919,313.126 L160.919,327.759 L147.776,327.759 L147.776,313.126 Z"/><text fill="#000100" font-family="Times New Roman" font-style="italic" font-size="12" transform="matrix(1,0,0,1,154.317,325.557)" xml:space="preserve"><tspan>l</tspan></text></g></g><path fill="none" stroke="#fb0207" d="M269.721,264.404 C269.721,276.217,260.145,285.793,248.332,285.793 C236.519,285.793,226.943,276.217,226.943,264.404 C226.943,252.591,236.519,243.015,248.332,243.015 C260.145,243.015,269.721,252.591,269.721,264.404 Z"/><g><g><path fill="none" stroke="#000100" d="M261.554,276.183 L261.556,432.378"/><path fill="none" stroke="#000100" d="M266.554,276.183 L256.554,276.183"/><path fill="none" stroke="#000100" d="M256.556,432.378 L266.556,432.378"/></g><g><path fill="#fffffe" d="M254.652,344.854 L269.721,344.854 L269.721,364.516 L254.652,364.516 L254.652,344.854 Z"/><text fill="#000100" font-family="Times New Roman" font-style="italic" font-size="12" transform="matrix(1,0,0,1,255.555,356.522)" xml:space="preserve"><tspan>h</tspan><tspan baseline-shift="sub">1</tspan></text></g></g></g></svg>
